[Header]
FileType HTR
DataType HTRS
FileVersion 1
NumSegments 64
NumFrames 4
DataFrameRate 30
EulerRotationOrder ZYX
CalibrationUnits mm
RotationUnits Degrees
GlobalAxisofGravity Y
BoneLengthAxis Y
ScaleFactor 1.0
[SegmentNames&Hierarchy]
Hips	GLOBAL
Spine	Hips
Spine1	Spine
Spine2	Spine1
Neck	Spine2
Head	Neck
LeftEye	Head
RightEye	Head
LeftShoulder	Spine2
LeftArm	LeftShoulder
LeftForeArm	LeftArm
LeftHand	LeftForeArm
LeftHandThumb1	LeftHand
LeftHandThumb2	LeftHandThumb1
LeftHandThumb3	LeftHandThumb2
LeftHandThumb4	LeftHandThumb3
LeftHandIndex1	LeftHand
LeftHandIndex2	LeftHandIndex1
LeftHandIndex3	LeftHandIndex2
LeftHandIndex4	LeftHandIndex3
LeftHandMiddle1	LeftHand
LeftHandMiddle2	LeftHandMiddle1
LeftHandMiddle3	LeftHandMiddle2
LeftHandMiddle4	LeftHandMiddle3
LeftHandRing1	LeftHand
LeftHandRing2	LeftHandRing1
LeftHandRing3	LeftHandRing2
LeftHandRing4	LeftHandRing3
LeftHandPinky1	LeftHand
LeftHandPinky2	LeftHandPinky1
LeftHandPinky3	LeftHandPinky2
LeftHandPinky4	LeftHandPinky3
RightShoulder	Spine2
RightArm	RightShoulder
RightForeArm	RightArm
RightHand	RightForeArm
RightHandPinky1	RightHand
RightHandPinky2	RightHandPinky1
RightHandPinky3	RightHandPinky2
RightHandPinky4	RightHandPinky3
RightHandRing1	RightHand
RightHandRing2	RightHandRing1
RightHandRing3	RightHandRing2
RightHandRing4	RightHandRing3
RightHandMiddle1	RightHand
RightHandMiddle2	RightHandMiddle1
RightHandMiddle3	RightHandMiddle2
RightHandMiddle4	RightHandMiddle3
RightHandIndex1	RightHand
RightHandIndex2	RightHandIndex1
RightHandIndex3	RightHandIndex2
RightHandIndex4	RightHandIndex3
RightHandThumb1	RightHand
RightHandThumb2	RightHandThumb1
RightHandThumb3	RightHandThumb2
RightHandThumb4	RightHandThumb3
LeftUpLeg	Hips
LeftLeg	LeftUpLeg
LeftFoot	LeftLeg
LeftToeBase	LeftFoot
RightUpLeg	Hips
RightLeg	RightUpLeg
RightFoot	RightLeg
RightToeBase	RightFoot
[BasePosition]
Hips	0	0	0	0	0	0	1
Spine	0	0	0	0	0	0	1
Spine1	0	0	0	0	0	0	1
Spine2	0	0	0	0	0	0	1
Neck	0	0	0	0	0	0	1
Head	0	0	0	0	0	0	1
LeftEye	0	0	0	0	0	0	1
RightEye	0	0	0	0	0	0	1
LeftShoulder	0	0	0	0	0	0	1
LeftArm	0	0	0	0	0	0	1
LeftForeArm	0	0	0	0	0	0	1
LeftHand	0	0	0	0	0	0	1
LeftHandThumb1	0	0	0	0	0	0	1
LeftHandThumb2	0	0	0	0	0	0	1
LeftHandThumb3	0	0	0	0	0	0	1
LeftHandThumb4	0	0	0	0	0	0	1
LeftHandIndex1	0	0	0	0	0	0	1
LeftHandIndex2	0	0	0	0	0	0	1
LeftHandIndex3	0	0	0	0	0	0	1
LeftHandIndex4	0	0	0	0	0	0	1
LeftHandMiddle1	0	0	0	0	0	0	1
LeftHandMiddle2	0	0	0	0	0	0	1
LeftHandMiddle3	0	0	0	0	0	0	1
LeftHandMiddle4	0	0	0	0	0	0	1
LeftHandRing1	0	0	0	0	0	0	1
LeftHandRing2	0	0	0	0	0	0	1
LeftHandRing3	0	0	0	0	0	0	1
LeftHandRing4	0	0	0	0	0	0	1
LeftHandPinky1	0	0	0	0	0	0	1
LeftHandPinky2	0	0	0	0	0	0	1
LeftHandPinky3	0	0	0	0	0	0	1
LeftHandPinky4	0	0	0	0	0	0	1
RightShoulder	0	0	0	0	0	0	1
RightArm	0	0	0	0	0	0	1
RightForeArm	0	0	0	0	0	0	1
RightHand	0	0	0	0	0	0	1
RightHandPinky1	0	0	0	0	0	0	1
RightHandPinky2	0	0	0	0	0	0	1
RightHandPinky3	0	0	0	0	0	0	1
RightHandPinky4	0	0	0	0	0	0	1
RightHandRing1	0	0	0	0	0	0	1
RightHandRing2	0	0	0	0	0	0	1
RightHandRing3	0	0	0	0	0	0	1
RightHandRing4	0	0	0	0	0	0	1
RightHandMiddle1	0	0	0	0	0	0	1
RightHandMiddle2	0	0	0	0	0	0	1
RightHandMiddle3	0	0	0	0	0	0	1
RightHandMiddle4	0	0	0	0	0	0	1
RightHandIndex1	0	0	0	0	0	0	1
RightHandIndex2	0	0	0	0	0	0	1
RightHandIndex3	0	0	0	0	0	0	1
RightHandIndex4	0	0	0	0	0	0	1
RightHandThumb1	0	0	0	0	0	0	1
RightHandThumb2	0	0	0	0	0	0	1
RightHandThumb3	0	0	0	0	0	0	1
RightHandThumb4	0	0	0	0	0	0	1
LeftUpLeg	0	0	0	0	0	0	1
LeftLeg	0	0	0	0	0	0	1
LeftFoot	0	0	0	0	0	0	1
LeftToeBase	0	0	0	0	0	0	1
RightUpLeg	0	0	0	0	0	0	1
RightLeg	0	0	0	0	0	0	1
RightFoot	0	0	0	0	0	0	1
RightToeBase	0	0	0	0	0	0	1
[Hips]
97 	4.89881897	1029.336792	24.86942673	-1.433560848	-5.832046986	-3.984288454	1.0
98 	5.080527306	1028.342163	24.48768806	-0.823633492	-5.811599731	-4.154722214	1.0
99 	4.992017269	1026.899536	23.07580948	-0.03509653732	-5.699451923	-4.404029369	1.0
100	4.521235943	1024.744995	20.35894585	1.01270318	-5.418478966	-4.773410797	1.0
[Spine]
97 	0	101.8159943	1.315000057	3.463449478	1.33883357	2.910105467	1.0
98 	0	101.8159943	1.315000057	3.502649307	1.304151297	2.913089037	1.0
99 	0	101.8159943	1.315000057	3.586293459	1.274554849	2.897399187	1.0
100	0	101.8159943	1.315000057	3.762113094	1.257320523	2.853448391	1.0
[Spine1]
97 	0	100.8349991	-10.00800037	1.325279951	0.2342184037	1.57267642	1.0
98 	0	100.8349991	-10.00800037	1.412611246	0.1751580983	1.547237158	1.0
99 	0	100.8349991	-10.00800037	1.5436728	0.1220290959	1.501863956	1.0
100	0	100.8349991	-10.00800037	1.750499606	0.08731393516	1.43105185	1.0
[Spine2]
97 	0	91	-13.73399925	1.299069405	0.2473107278	1.578689575	1.0
98 	0	91	-13.73399925	1.385912061	0.1873341948	1.552224398	1.0
99 	0	91	-13.73399925	1.516738176	0.1339863837	1.506277919	1.0
100	0	91	-13.73399925	1.724023342	0.1008261293	1.436052799	1.0
[Neck]
97 	0	166.7169952	-25.16200066	5.273967743	0.09347414225	0.1660562456	1.0
98 	0	166.7169952	-25.16200066	5.173336983	0.1638183892	-0.03078025579	1.0
99 	0	166.7169952	-25.16200066	4.978408813	0.2250402421	-0.2572968602	1.0
100	0	166.7169952	-25.16200066	4.535706043	0.2533426881	-0.4453323185	1.0
[Head]
97 	0	96.17900085	16.84999847	-9.115307808	2.659014463	-2.565428257	1.0
98 	0	96.17900085	16.84999847	-9.663627625	2.969497204	-3.549124718	1.0
99 	0	96.17900085	16.84999847	-10.64258766	3.14202857	-4.47465992	1.0
100	0	96.17900085	16.84999847	-12.36305618	3.021932602	-5.052308083	1.0
[LeftEye]
97 	30.6760006	64.09500122	92.83599854	0	0	0	1.0
98 	30.6760006	64.09500122	92.83599854	0	0	0	1.0
99 	30.6760006	64.09500122	92.83599854	0	0	0	1.0
100	30.6760006	64.09500122	92.83599854	0	0	0	1.0
[RightEye]
97 	-30.6760006	64.09500122	92.83499908	0	0	0	1.0
98 	-30.6760006	64.09500122	92.83499908	0	0	0	1.0
99 	-30.6760006	64.09500122	92.83499908	0	0	0	1.0
100	-30.6760006	64.09500122	92.83499908	0	0	0	1.0
[LeftShoulder]
97 	45.70400238	109.4599991	-26.28000069	4.613654137	-16.85678864	-11.91315746	1.0
98 	45.70400238	109.4599991	-26.28000069	4.217541695	-17.43067551	-9.795562744	1.0
99 	45.70400238	109.4599991	-26.28000069	3.766258001	-18.27384949	-7.26212883	1.0
100	45.70400238	109.4599991	-26.28000069	3.356008768	-19.46064758	-4.65303421	1.0
[LeftArm]
97 	105.923996	-5.24600029	-22.32099915	21.88503456	-2.230161905	-70.84581757	1.0
98 	105.923996	-5.24600029	-22.32099915	21.59170914	-2.2894063	-72.14178467	1.0
99 	105.923996	-5.24600029	-22.32099915	21.00241661	-2.635189295	-73.67634583	1.0
100	105.923996	-5.24600029	-22.32099915	20.13173676	-3.287810802	-75.07861328	1.0
[LeftForeArm]
97 	278.414978	-0.0009999999311	0	-1.708371656e-06	-5.320683479	-0.0001950191363	1.0
98 	278.414978	-0.0009999999311	0	-4.579347205e-06	-6.557766914	-0.0002072789066	1.0
99 	278.414978	-0.0009999999311	0	-5.586082807e-06	-7.656908512	-0.0002175176924	1.0
100	278.414978	-0.0009999999311	0	1.448593366e-06	-8.645778656	-0.0002087093308	1.0
[LeftHand]
97 	283.2879944	0	0	-35.4343071	-5.608640671	-4.601768494	1.0
98 	283.2879944	0	0	-35.80303955	-5.751324654	-4.253009319	1.0
99 	283.2879944	0	0	-36.12326813	-6.004211426	-3.795182467	1.0
100	283.2879944	0	0	-36.74350739	-6.860926151	-3.210288048	1.0
[LeftHandThumb1]
97 	24.6609993	-15.75	26.8239994	-0.5428668261	1.806350946	4.506029606	1.0
98 	24.6609993	-15.75	26.8239994	-1.898231983	1.658751488	5.356319427	1.0
99 	24.6609993	-15.75	26.8239994	-3.694250107	1.240939975	6.321213245	1.0
100	24.6609993	-15.75	26.8239994	-5.751875877	0.201405108	7.037512779	1.0
[LeftHandThumb2]
97 	32.29800034	-18.64699936	18.64699936	19.8746357	19.74525642	23.02269554	1.0
98 	32.29800034	-18.64699936	18.64699936	19.85673141	20.2325058	22.11569405	1.0
99 	32.29800034	-18.64699936	18.64699936	19.82788086	20.91162109	20.88447762	1.0
100	32.29800034	-18.64699936	18.64699936	19.77960777	21.72161865	19.40657425	1.0
[LeftHandThumb3]
97 	26.52600098	-15.31499958	15.31499958	-13.11477947	5.482509613	8.05366993	1.0
98 	26.52600098	-15.31499958	15.31499958	-12.8659687	5.082056046	8.189763069	1.0
99 	26.52600098	-15.31499958	15.31499958	-12.51521683	4.52433157	8.346893311	1.0
100	26.52600098	-15.31499958	15.31499958	-12.0714798	3.82993865	8.476529121	1.0
[LeftHandThumb4]
97 	19.54599953	-11.28499985	11.28499985	0	0	0	1.0
98 	19.54599953	-11.28499985	11.28499985	0	0	0	1.0
99 	19.54599953	-11.28499985	11.28499985	0	0	0	1.0
100	19.54599953	-11.28499985	11.28499985	0	0	0	1.0
[LeftHandIndex1]
97 	91.09299469	-5.170999527	22.60099792	0.3330563605	-1.011386156	-6.501833916	1.0
98 	91.09299469	-5.170999527	22.60099792	0.2742815614	-1.13664794	-6.29592514	1.0
99 	91.09299469	-5.170999527	22.60099792	0.2166462094	-1.297491074	-5.954409599	1.0
100	91.09299469	-5.170999527	22.60099792	0.2000097036	-1.478182435	-5.240469456	1.0
[LeftHandIndex2]
97 	36.76399994	0	0	-0.2663769126	1.744139791	-17.36584663	1.0
98 	36.76399994	0	0	-0.2659538984	1.742779016	-17.35186768	1.0
99 	36.76399994	0	0	-0.2653379738	1.740799069	-17.33152008	1.0
100	36.76399994	0	0	-0.2645123601	1.738154173	-17.30435181	1.0
[LeftHandIndex3]
97 	28.83100128	0	0	-0.05728697404	0.8163313866	-8.028355598	1.0
98 	28.83100128	0	0	-0.05706116557	0.8147262931	-8.01247406	1.0
99 	28.83100128	0	0	-0.0567406714	0.8124480247	-7.989938736	1.0
100	28.83100128	0	0	-0.0563304238	0.8095266819	-7.96103096	1.0
[LeftHandIndex4]
97 	23.92700005	0	0	0	0	0	1.0
98 	23.92700005	0	0	0	0	0	1.0
99 	23.92700005	0	0	0	0	0	1.0
100	23.92700005	0	0	0	0	0	1.0
[LeftHandMiddle1]
97 	95.33399963	0	0	-0.6485505104	2.774922371	-13.49060535	1.0
98 	95.33399963	0	0	-0.6288599372	2.671600819	-13.18345451	1.0
99 	95.33399963	0	0	-0.6069341898	2.550073147	-12.83957291	1.0
100	95.33399963	0	0	-0.5704746842	2.441054106	-12.26504707	1.0
[LeftHandMiddle2]
97 	36.98199844	0	0	-0.258084476	1.717408657	-17.09125328	1.0
98 	36.98199844	0	0	-0.2571954131	1.714541674	-17.06182289	1.0
99 	36.98199844	0	0	-0.2557180822	1.709694028	-17.01212502	1.0
100	36.98199844	0	0	-0.2515022755	1.695833921	-16.86999321	1.0
[LeftHandMiddle3]
97 	29.50900078	0	0	-0.2892120481	1.815506458	-18.10098648	1.0
98 	29.50900078	0	0	-0.2882556915	1.812601566	-18.07096863	1.0
99 	29.50900078	0	0	-0.286670804	1.807712555	-18.02053642	1.0
100	29.50900078	0	0	-0.2821977735	1.793896198	-17.87807465	1.0
[LeftHandMiddle4]
97 	28.3390007	0	0	0	0	0	1.0
98 	28.3390007	0	0	0	0	0	1.0
99 	28.3390007	0	0	0	0	0	1.0
100	28.3390007	0	0	0	0	0	1.0
[LeftHandRing1]
97 	91.04499817	-0.4390000105	-18.65100098	-1.203351617	3.450125694	-21.40943527	1.0
98 	91.04499817	-0.4390000105	-18.65100098	-1.222084284	3.463768959	-21.65595245	1.0
99 	91.04499817	-0.4390000105	-18.65100098	-1.240935087	3.476932764	-21.90286064	1.0
100	91.04499817	-0.4390000105	-18.65100098	-1.260437965	3.490587473	-22.15717316	1.0
[LeftHandRing2]
97 	31.54000092	0	0	-0.4272634685	2.193059206	-22.04666138	1.0
98 	31.54000092	0	0	-0.4416848719	2.228312731	-22.42054749	1.0
99 	31.54000092	0	0	-0.4556770325	2.261903524	-22.77775383	1.0
100	31.54000092	0	0	-0.4691632688	2.293732166	-23.11705971	1.0
[LeftHandRing3]
97 	29.37700081	0	0	-0.318289727	1.902118206	-18.99748421	1.0
98 	29.37700081	0	0	-0.3308640122	1.938233614	-19.372715	1.0
99 	29.37700081	0	0	-0.3431090713	1.972693682	-19.73155212	1.0
100	29.37700081	0	0	-0.3549357355	2.005345345	-20.07232094	1.0
[LeftHandRing4]
97 	26.47500038	0	0	0	0	0	1.0
98 	26.47500038	0	0	0	0	0	1.0
99 	26.47500038	0	0	0	0	0	1.0
100	26.47500038	0	0	0	0	0	1.0
[LeftHandPinky1]
97 	80.77799988	-4.887000084	-38.06099701	-1.785732508	5.429095268	-28.08071327	1.0
98 	80.77799988	-4.887000084	-38.06099701	-1.913900018	5.270580769	-27.99941444	1.0
99 	80.77799988	-4.887000084	-38.06099701	-2.108104944	5.059822083	-28.05280113	1.0
100	80.77799988	-4.887000084	-38.06099701	-2.3687644	4.822199821	-28.37290573	1.0
[LeftHandPinky2]
97 	36	0	0	-0.3259327412	1.924161196	-19.22636414	1.0
98 	36	0	0	-0.335424006	1.950987816	-19.50557709	1.0
99 	36	0	0	-0.3448295295	1.977481484	-19.7814312	1.0
100	36	0	0	-0.3483884633	1.987413168	-19.88496399	1.0
[LeftHandPinky3]
97 	21.14200211	0	0	-0.2963859737	1.837300539	-18.32606506	1.0
98 	21.14200211	0	0	-0.3054494262	1.86426115	-18.60516357	1.0
99 	21.14200211	0	0	-0.3144338131	1.890889645	-18.88093567	1.0
100	21.14200211	0	0	-0.3178426623	1.900890708	-18.98462486	1.0
[LeftHandPinky4]
97 	19.75699997	0	0	0	0	0	1.0
98 	19.75699997	0	0	0	0	0	1.0
99 	19.75699997	0	0	0	0	0	1.0
100	19.75699997	0	0	0	0	0	1.0
[RightShoulder]
97 	-45.70000076	109.4620056	-26.28000069	5.164045334	15.07529449	14.9680748	1.0
98 	-45.70000076	109.4620056	-26.28000069	4.876526833	15.76689625	13.06064224	1.0
99 	-45.70000076	109.4620056	-26.28000069	4.534421444	16.78422546	10.61841297	1.0
100	-45.70000076	109.4620056	-26.28000069	4.207590103	18.18066597	7.865113258	1.0
[RightArm]
97 	-105.9280014	-5.248000145	-22.32099915	31.73606682	2.722847462	60.41054153	1.0
98 	-105.9280014	-5.248000145	-22.32099915	31.52544403	3.007115126	61.32749176	1.0
99 	-105.9280014	-5.248000145	-22.32099915	30.84683609	3.429180384	62.88174057	1.0
100	-105.9280014	-5.248000145	-22.32099915	29.1900444	3.867200136	65.11740112	1.0
[RightForeArm]
97 	-278.414978	0	0	-4.924911991e-06	10.65991783	1.526578103e-06	1.0
98 	-278.414978	0	0	-3.789307129e-06	12.17031002	1.163949491e-06	1.0
99 	-278.414978	0	0	-2.425463663e-06	13.6663332	1.453964416e-07	1.0
100	-278.414978	0	0	-3.698458613e-06	15.09341526	1.727648282e-06	1.0
[RightHand]
97 	-283.2879944	0	0.0009999999311	-22.39079666	3.252085924	5.589174271	1.0
98 	-283.2879944	0	0.0009999999311	-22.47856331	3.570577145	5.128018856	1.0
99 	-283.2879944	0	0.0009999999311	-22.79189682	4.148467064	4.665588856	1.0
100	-283.2879944	0	0.0009999999311	-24.32549667	5.568349361	4.192497253	1.0
[RightHandPinky1]
97 	-80.76699829	-4.885000229	-38.06000137	-1.292147279	-4.320190907	23.16858482	1.0
98 	-80.76699829	-4.885000229	-38.06000137	-1.388572693	-4.387504101	24.57014275	1.0
99 	-80.76699829	-4.885000229	-38.06000137	-1.634211421	-4.446261406	27.78249931	1.0
100	-80.76699829	-4.885000229	-38.06000137	-2.100236893	-4.425680161	33.42993164	1.0
[RightHandPinky2]
97 	-36	0	0.0009999999311	-0.2602710128	-1.53204143	19.30152321	1.0
98 	-36	0	0.0009999999311	-0.2837569118	-1.596790195	20.15253448	1.0
99 	-36	0	0.0009999999311	-0.3097984493	-1.666835308	21.07592964	1.0
100	-36	0	0.0009999999311	-0.3289745152	-1.716578364	21.73459435	1.0
[RightHandPinky3]
97 	-21.14200211	0	0	-0.2368539721	-1.463422775	18.38609695	1.0
98 	-21.14200211	0	0	-0.2592670321	-1.528356552	19.23481941	1.0
99 	-21.14200211	0	0	-0.2839342058	-1.598067522	20.14850807	1.0
100	-21.14200211	0	0	-0.3016890585	-1.646434307	20.78503799	1.0
[RightHandPinky4]
97 	-19.75699997	0	0	0	0	0	1.0
98 	-19.75699997	0	0	0	0	0	1.0
99 	-19.75699997	0	0	0	0	0	1.0
100	-19.75699997	0	0	0	0	0	1.0
[RightHandRing1]
97 	-91.03599548	-0.4390000105	-18.65100098	-0.949587822	-1.737220049	19.03342819	1.0
98 	-91.03599548	-0.4390000105	-18.65100098	-1.057131886	-1.393262982	20.72434616	1.0
99 	-91.03599548	-0.4390000105	-18.65100098	-1.264170289	-1.163202763	23.76997566	1.0
100	-91.03599548	-0.4390000105	-18.65100098	-1.603646278	-1.186663032	28.45074463	1.0
[RightHandRing2]
97 	-31.54000092	0	0	-0.4541790783	-2.001754761	25.56470871	1.0
98 	-31.54000092	0	0	-0.5060856342	-2.108851194	27.03456306	1.0
99 	-31.54000092	0	0	-0.5769982934	-2.240338087	28.88225555	1.0
100	-31.54000092	0	0	-0.6674825549	-2.404778004	31.1931057	1.0
[RightHandRing3]
97 	-29.37700081	0	0	-0.3531677127	-1.775323749	22.5001297	1.0
98 	-29.37700081	0	0	-0.3990464807	-1.884563923	23.96311569	1.0
99 	-29.37700081	0	0	-0.4625792801	-2.019208908	25.80410576	1.0
100	-29.37700081	0	0	-0.5439396501	-2.187996864	28.11057663	1.0
[RightHandRing4]
97 	-26.47500038	0	0	0	0	0	1.0
98 	-26.47500038	0	0	0	0	0	1.0
99 	-26.47500038	0	0	0	0	0	1.0
100	-26.47500038	0	0	0	0	0	1.0
[RightHandMiddle1]
97 	-95.32500458	0	0	-0.3625906706	-2.484335661	8.928174019	1.0
98 	-95.32500458	0	0	-0.4506641626	-2.586019993	10.5939846	1.0
99 	-95.32500458	0	0	-0.6212157011	-2.845585823	13.62985229	1.0
100	-95.32500458	0	0	-0.8625661135	-3.473243237	17.56031609	1.0
[RightHandMiddle2]
97 	-36.98199844	0	0	-0.2122688442	-1.387290835	17.39772034	1.0
98 	-36.98199844	0	0	-0.2147441208	-1.395193458	17.5000267	1.0
99 	-36.98199844	0	0	-0.2186150998	-1.407406092	17.65829849	1.0
100	-36.98199844	0	0	-0.2240278125	-1.424264312	17.87701607	1.0
[RightHandMiddle3]
97 	-29.50900078	0	0	-0.2373795509	-1.467039943	18.40680885	1.0
98 	-29.50900078	0	0	-0.239996627	-1.474872947	18.50888252	1.0
99 	-29.50900078	0	0	-0.2440945059	-1.487024307	18.6673584	1.0
100	-29.50900078	0	0	-0.2498311102	-1.50388658	18.88738632	1.0
[RightHandMiddle4]
97 	-28.3390007	0	0.0009999999311	0	0	0	1.0
98 	-28.3390007	0	0.0009999999311	0	0	0	1.0
99 	-28.3390007	0	0.0009999999311	0	0	0	1.0
100	-28.3390007	0	0.0009999999311	0	0	0	1.0
[RightHandIndex1]
97 	-91.08300018	-5.167999744	22.60099792	0.5429634452	1.634248137	-0.4563604593	1.0
98 	-91.08300018	-5.167999744	22.60099792	0.547541678	1.420621276	0.1666767895	1.0
99 	-91.08300018	-5.167999744	22.60099792	0.5489301085	0.8896536827	1.85960412	1.0
100	-91.08300018	-5.167999744	22.60099792	0.6099480391	-0.1778045595	4.192450523	1.0
[RightHandIndex2]
97 	-36.76399994	0	0	-0.2077994794	-1.372948527	17.21207047	1.0
98 	-36.76399994	0	0	-0.2042738795	-1.361549973	17.06472778	1.0
99 	-36.76399994	0	0	-0.1997515857	-1.346720695	16.87324524	1.0
100	-36.76399994	0	0	-0.1937767714	-1.32684207	16.61683273	1.0
[RightHandIndex3]
97 	-28.83100128	0	0	-0.04357222468	-0.6344398856	7.858032703	1.0
98 	-28.83100128	0	0	-0.04195421189	-0.6226225495	7.710755348	1.0
99 	-28.83100128	0	0	-0.03991006315	-0.6072559357	7.51936245	1.0
100	-28.83100128	0	0	-0.03724049032	-0.5866684318	7.263064384	1.0
[RightHandIndex4]
97 	-23.92700005	0	0	0	0	0	1.0
98 	-23.92700005	0	0	0	0	0	1.0
99 	-23.92700005	0	0	0	0	0	1.0
100	-23.92700005	0	0	0	0	0	1.0
[RightHandThumb1]
97 	-24.64799881	-15.72700024	26.82600021	-1.288921595	-1.333341002	-5.486093521	1.0
98 	-24.64799881	-15.72700024	26.82600021	-1.25460422	-1.414189816	-5.684955597	1.0
99 	-24.64799881	-15.72700024	26.82600021	-1.331304431	-1.226519465	-5.260672092	1.0
100	-24.64799881	-15.72700024	26.82600021	-1.623146772	-0.5540902615	-3.453866005	1.0
[RightHandThumb2]
97 	-32.29800034	-18.64699936	18.64699936	19.88354874	-21.84847641	-23.16738129	1.0
98 	-32.29800034	-18.64699936	18.64699936	19.40296555	-21.41447067	-22.95344925	1.0
99 	-32.29800034	-18.64699936	18.64699936	19.09964752	-21.1381073	-22.81997871	1.0
100	-32.29800034	-18.64699936	18.64699936	19.1240921	-21.16334152	-22.82872009	1.0
[RightHandThumb3]
97 	-26.52600098	-15.31399918	15.31399918	-13.79170132	-7.586027145	-11.58810425	1.0
98 	-26.52600098	-15.31399918	15.31399918	-13.73043442	-7.663236618	-11.60708427	1.0
99 	-26.52600098	-15.31399918	15.31399918	-13.83284187	-7.538327217	-11.57426071	1.0
100	-26.52600098	-15.31399918	15.31399918	-14.26117992	-7.039937496	-11.44108963	1.0
[RightHandThumb4]
97 	-19.54599953	-11.28499985	11.28499985	0	0	0	1.0
98 	-19.54599953	-11.28499985	11.28499985	0	0	0	1.0
99 	-19.54599953	-11.28499985	11.28499985	0	0	0	1.0
100	-19.54599953	-11.28499985	11.28499985	0	0	0	1.0
[LeftUpLeg]
97 	82.07800293	-67.51699829	-15.99599934	-12.46097469	16.35964394	7.919708729	1.0
98 	82.07800293	-67.51699829	-15.99599934	-13.65239334	16.38051224	7.962498665	1.0
99 	82.07800293	-67.51699829	-15.99599934	-15.2253809	16.43621445	8.027760506	1.0
100	82.07800293	-67.51699829	-15.99599934	-17.40201187	16.56185913	8.124436378	1.0
[LeftLeg]
97 	0	-443.7049866	2.845999956	17.68507195	1.332045555	4.48258543	1.0
98 	0	-443.7049866	2.845999956	18.63043022	1.316245079	4.439768791	1.0
99 	0	-443.7049866	2.845999956	19.7541275	1.198635578	4.361690521	1.0
100	0	-443.7049866	2.845999956	21.2259922	0.889195025	4.21724987	1.0
[LeftFoot]
97 	0	-444.2789917	-29.8219986	-0.9462251067	0.4841533005	-7.430644512	1.0
98 	0	-444.2789917	-29.8219986	-0.9651606083	0.4836565256	-7.512836456	1.0
99 	0	-444.2789917	-29.8219986	-0.9747067094	0.4778069258	-7.547176361	1.0
100	0	-444.2789917	-29.8219986	-1.00064981	0.457474649	-7.483208656	1.0
[LeftToeBase]
97 	0	-87.28699493	107.1060028	-4.541550159	2.492319027e-06	2.355899085e-07	1.0
98 	0	-87.28699493	107.1060028	-4.465407372	4.673813237e-06	3.942553235e-07	1.0
99 	0	-87.28699493	107.1060028	-4.408016682	4.987358352e-06	5.193574566e-07	1.0
100	0	-87.28699493	107.1060028	-4.350131035	-1.763545015e-06	3.256309355e-07	1.0
[RightUpLeg]
97 	-82.07800293	-67.51699829	-15.99599934	-3.322082281	-10.16938114	3.886340141	1.0
98 	-82.07800293	-67.51699829	-15.99599934	-4.472961903	-9.962190628	4.197667122	1.0
99 	-82.07800293	-67.51699829	-15.99599934	-5.982227325	-9.649027824	4.688709259	1.0
100	-82.07800293	-67.51699829	-15.99599934	-7.923254967	-9.178827286	5.461501122	1.0
[RightLeg]
97 	0	-443.7049866	2.861999989	11.7698679	-8.928090096	-4.917016983	1.0
98 	0	-443.7049866	2.861999989	12.70059967	-9.033431053	-5.143051624	1.0
99 	0	-443.7049866	2.861999989	13.8459549	-9.102671623	-5.446392059	1.0
100	0	-443.7049866	2.861999989	15.14817333	-8.943956375	-5.818432331	1.0
[RightFoot]
97 	0	-444.2770081	-29.83799934	-5.727309227	-1.217680454	3.943052769	1.0
98 	0	-444.2770081	-29.83799934	-5.881570816	-1.197002411	4.053838253	1.0
99 	0	-444.2770081	-29.83799934	-6.101486206	-1.362826109	4.142230511	1.0
100	0	-444.2770081	-29.83799934	-6.462236404	-2.025078297	4.175423145	1.0
[RightToeBase]
97 	0	-87.28699493	107.1060028	-7.261824608	6.149343335e-06	-7.300287734e-07	1.0
98 	0	-87.28699493	107.1060028	-7.294922829	5.888450232e-06	1.201917144e-07	1.0
99 	0	-87.28699493	107.1060028	-7.325229645	4.67307018e-06	1.031860847e-06	1.0
100	0	-87.28699493	107.1060028	-7.308398247	2.382945695e-06	1.853225285e-06	1.0
[EndOfFile]
